inDegrees=no
num_controls=7
num_derivatives=13
num_iterations=135
num_multipliers=7
num_parameters=0
num_slacks=7
num_states=26
objective=6.305367
objective_accelerations=0.724632
objective_balance=0.062021
objective_effort=0.597148
objective_height=4.805220
objective_ligament=0.116347
solver_duration=1396.185754
status=Solve_Succeeded
success=true
DataType=double
version=3
OpenSimVersion=4.4-2022-07-23-0e9fedc
endheader
time	/jointset/ground_pelvis/pelvis_tilt/value	/jointset/ground_pelvis/pelvis_tx/value	/jointset/ground_pelvis/pelvis_ty/value	/jointset/hip_l/hip_flexion_l/value	/jointset/hip_l/hip_adduction_l/value	/jointset/hip_l/hip_rotation_l/value	/jointset/back/lumbar_extension/value	/jointset/patellofemoral_l/patellar_flexion_l/value	/jointset/knee_l/knee_flexion_l/value	/jointset/knee_l/knee_adduction_l/value	/jointset/knee_l/knee_rotation_l/value	/jointset/ankle_l/ankle_angle_l/value	/jointset/subtalar_l/subtalar_angle_l/value	/jointset/ground_pelvis/pelvis_tilt/speed	/jointset/ground_pelvis/pelvis_tx/speed	/jointset/ground_pelvis/pelvis_ty/speed	/jointset/hip_l/hip_flexion_l/speed	/jointset/hip_l/hip_adduction_l/speed	/jointset/hip_l/hip_rotation_l/speed	/jointset/back/lumbar_extension/speed	/jointset/patellofemoral_l/patellar_flexion_l/speed	/jointset/knee_l/knee_flexion_l/speed	/jointset/knee_l/knee_adduction_l/speed	/jointset/knee_l/knee_rotation_l/speed	/jointset/ankle_l/ankle_angle_l/speed	/jointset/subtalar_l/subtalar_angle_l/speed	/forceset/tau_hip_flexion_l	/forceset/tau_hip_adduction_l	/forceset/tau_hip_rotation_l	/forceset/tau_knee_flexion_l	/forceset/tau_ankle_angle_l	/forceset/tau_subtalar_angle_l	/forceset/tau_lumbar_extension	lambda_cid13_p0	lambda_cid13_p1	lambda_cid13_p2	lambda_cid13_p3	lambda_cid13_p4	lambda_cid13_p5	lambda_cid14_p0	/jointset/ground_pelvis/pelvis_tilt/accel	/jointset/ground_pelvis/pelvis_tx/accel	/jointset/ground_pelvis/pelvis_ty/accel	/jointset/hip_l/hip_flexion_l/accel	/jointset/hip_l/hip_adduction_l/accel	/jointset/hip_l/hip_rotation_l/accel	/jointset/back/lumbar_extension/accel	/jointset/patellofemoral_l/patellar_flexion_l/accel	/jointset/knee_l/knee_flexion_l/accel	/jointset/knee_l/knee_adduction_l/accel	/jointset/knee_l/knee_rotation_l/accel	/jointset/ankle_l/ankle_angle_l/accel	/jointset/subtalar_l/subtalar_angle_l/accel	gamma_cid13_p0	gamma_cid13_p1	gamma_cid13_p2	gamma_cid13_p3	gamma_cid13_p4	gamma_cid13_p5	gamma_cid14_p0
0	-0.03679763935565507	0.05666665686438277	0.9203420388077073	0.3085811930696054	-0.2956333781296094	-0.3014504880787266	-0.3879500408040475	0.2499276582272455	0.249927658227084	-0.17453282786714	-0.1743791632374395	-0.0008036543073733089	0.000442949489855752	0	0	0	0	0	0	0	0	0	0	0	0	0	0.08846963118992496	-0.02588697840931252	-0.02098417980468717	-0.2487418460580972	0.1912676204267938	-0.04073209657078727	-0.01492708779626675	17.23359625514171	11.83908503379624	0.8946276615257307	19.08122531219263	-612.7275582984033	-52.01325743992071	-23.19173950849932	-2.009548732625641	-2.496291822923548	-1.113671195563725	11.57941045121725	-0.7283742966562671	3.545602941481641	-7.554536622494955	10.25222252282994	10.25222252282865	1.779816255235763	-0.09676268015392607	1.336494136924612	-0.3364402283411725	4.282425523782132e-09	2.09227954104606e-07	-2.52120051742928e-09	1.230647661044657e-08	7.064399473218737e-08	4.570227778839598e-08	2.129651570081832e-08
0.01	-0.0368934492554898	0.05654275160480937	0.9202873123583086	0.3091481690033552	-0.2956707315324704	-0.3012717762525723	-0.388329930437639	0.2504311473030318	0.2504311473027503	-0.1744490926687498	-0.1743802694181446	-0.0007396199049541724	0.0004241771290874442	-0.01909882518341014	-0.02471084493508964	-0.01092715883622504	0.1129966109498412	-0.007494186884534946	0.03562196437164847	-0.07575755815571969	0.1003159314876112	0.1003159314876123	0.0165557968183116	-0.0002255579616701758	0.01270246700729927	-0.003813827921863234	0.08517909436190105	-0.04514302371701362	-0.02033502472932401	-0.2460853854527445	0.1816560320987455	-0.02015189772321101	-0.01195248262424712	14.8713076354083	3.47484574321408	2.045219230725798	19.15793540016428	-614.0990723740136	-69.46004134000316	-23.19748379816992	-1.850581135917636	-2.44794733125041	-1.079504442510723	11.09999603400174	-0.7635005834490342	3.552444242869488	-7.553310120322926	9.863991657827373	9.863991657828068	1.564810884278323	0.01389160389700068	1.221465350833449	-0.4127901817371561	-2.630831869653807e-08	1.965418969770316e-07	1.294868820086164e-07	2.826360475707778e-08	-1.450312199801216e-08	-2.607629416906075e-08	3.307039924307207e-09
0.02	-0.03717835375225174	0.0561738445953831	0.9201238610775765	0.3108331529698923	-0.2957837387439932	-0.3007404545710963	-0.3894607845944735	0.2519263383326748	0.2519263383326676	-0.1742055296042166	-0.1743837623871213	-0.0005516923588231009	0.000365479267574776	-0.03781891935482062	-0.0490003499705732	-0.02174496626672376	0.2236016065850152	-0.01513076173294196	0.07052197105778726	-0.1501929046393201	0.1983403908192618	0.1983403908192701	0.03196557320259038	-0.000477357600505798	0.02477862874258999	-0.007985100148879419	0.08188855753354961	-0.06439906902476226	-0.01968586965211279	-0.2434289248478304	0.1720444437706465	0.0004283011242747647	-0.008977877452411838	12.59010384129172	-4.901457814770143	3.195297172893912	19.14938941013508	-614.2298063061297	-86.80702738564565	-23.21445634118449	-1.933802530221361	-2.412023843006152	-1.091800914418526	11.10108738828433	-0.7568518894305585	3.401211404379484	-7.290094288068673	9.79392809163863	9.793928091638564	1.550612168429679	-0.1020110155875773	1.211233082518729	-0.4079290893730902	-5.689906291685827e-08	1.838558398494572e-07	2.614949645346621e-07	4.4220732903709e-08	-9.965023872821169e-08	-9.785486612651749e-08	-1.468243585220391e-08
0.03	-0.03764823298863784	0.05556547270142297	0.9198528209288678	0.3136097553551324	-0.2959727478211541	-0.2998652757922315	-0.391324506799437	0.2543891436287185	0.2543891436286225	-0.1738120358948223	-0.1743903865678793	-0.0002447685246114138	0.0002648775771615224	-0.05603427164868182	-0.07247235351375204	-0.032436512947365	0.3310496956180417	-0.02259491299893484	0.1043248159037475	-0.2218754782314864	0.2937248134324786	0.2937248134324846	0.04667935221338152	-0.000824132546157818	0.03664614197779973	-0.01204150047632067	0.07308253538390906	-0.05241993371947271	-0.01878430842358352	-0.2368326523234385	0.1692490905524584	-0.006103058843844144	-0.0009436588132036587	11.39635309405378	-1.972789319451806	2.861936060640736	18.36418483208168	-616.3076483424694	-79.43335405769355	-23.24199326139747	-1.747011507985718	-2.284528415499147	-1.053869239976307	10.46628244625357	-0.7298364513673183	3.341443203564295	-7.005930169567687	9.336324115687084	9.336324115686647	1.42374395136051	0.002531447527625024	1.180514422140805	-0.3904943531081513	-8.26433919966724e-08	1.740537411940578e-07	3.161914597934651e-07	7.420842404696575e-08	-2.279793476060773e-07	-1.364273868029607e-07	-2.016548516273711e-08
